# xmcd CD Database Entry
#
# Track frame offsets:
# 150
# 17592
# 33172
# 50057
# 67460
# 85575
# 101772
# 118647
# 134760
# 153132
# 169915
# 184862
# 199410
# 216040
#
# Disc length: 3151 seconds
#
# Revision: 1
# Processed by: cddbd v1.5.1PL0 Copyright (c) Steve Scherf et al.
# Submitted via: RSJCDWriter_freedb_lib_OS/2 1.02
#
DISCID=cb0c4d0e
DTITLE=Michelle Chappel - Infinity and 1, man
DYEAR=1900
DGENRE=
TTITLE0=Living in the Moment
TTITLE1=I Offer You
TTITLE2=She's Gone Away
TTITLE3=It Comes and It Goes
TTITLE4=Fade Away
TTITLE5=Little Girl (Right in Front of Me)
TTITLE6=Downtown
TTITLE7=Landslide
TTITLE8=Rescue You
TTITLE9=Whatcha Waiting For?
TTITLE10=I Couldn't Say Good-bye
TTITLE11=Just Don't Care
TTITLE12=Cry Against the Wind
TTITLE13=Marhea
EXTD=
EXTT0=
EXTT1=
EXTT2=
EXTT3=
EXTT4=
EXTT5=
EXTT6=
EXTT7=
EXTT8=
EXTT9=
EXTT10=
EXTT11=
EXTT12=
EXTT13=
PLAYORDER=
